<svg xmlns="http://www.w3.org/2000/svg" viewBox="0 0 200 200" width="200" height="200" role="img" aria-label="Carnitas Don Nico menu placeholder">
  <rect width="200" height="200" fill="#F5EFE0"/>
  <g fill="#C8A04A">
    <path d="M0 0h200v18l-12 10-13-10-13 10-13-10-12 10-13-10-13 10-13-10-12 10-13-10-13 10-13-10-12 10-13-10L0 18z"/>
    <path d="M0 200h200v-18l-12-10-13 10-13-10-13 10-12-10-13 10-13-10-13 10-12-10-13 10-13-10-13 10-12-10-13 10L0 182z"/>
  </g>
  <g fill="none" stroke="#C8A04A" stroke-width="3" stroke-linecap="round" stroke-linejoin="round">
    <path d="M50 120 Q60 92 100 92 Q140 92 150 120 Z"/>
    <path d="M50 120 L45 140 Q45 150 60 150 L140 150 Q155 150 155 140 L150 120 Z"/>
    <path d="M38 118 L50 118"/>
    <path d="M150 118 L162 118"/>
    <path d="M100 80 Q96 70 100 62 Q104 70 100 80"/>
    <path d="M88 82 Q84 74 86 66 Q92 72 88 82"/>
    <path d="M112 82 Q116 74 114 66 Q108 72 112 82"/>
  </g>
  <text x="100" y="175" text-anchor="middle" font-family="Georgia, serif" font-size="12" font-style="italic" fill="#C8A04A">Carnitas Don Nico</text>
</svg>
